<?xml version="1.0" standalone="no"?>
<!DOCTYPE svg PUBLIC "-//W3C//DTD SVG 20010904//EN"
 "http://www.w3.org/TR/2001/REC-SVG-20010904/DTD/svg10.dtd">
<svg version="1.0" xmlns="http://www.w3.org/2000/svg"
 width="832.000000pt" height="832.000000pt" viewBox="0 0 832.000000 832.000000"
 preserveAspectRatio="xMidYMid meet">
<metadata>
Created by potrace 1.14, written by Peter Selinger 2001-2017
</metadata>
<g transform="translate(0.000000,832.000000) scale(0.100000,-0.100000)"
fill="#000000" stroke="none">
<path d="M4309 6756 c-2 -2 -69 -7 -149 -10 -80 -4 -172 -9 -205 -11 -33 -3
-485 -8 -1005 -10 -896 -5 -948 -7 -1010 -25 -151 -45 -273 -166 -320 -319
-20 -62 -20 -104 -20 -2221 0 -2143 0 -2158 20 -2224 41 -133 155 -254 287
-307 56 -23 70 -24 443 -30 212 -3 399 -9 415 -13 17 -4 73 -9 125 -12 52 -3
140 -7 195 -10 113 -6 102 -6 285 -1 75 2 141 6 147 10 6 4 15 3 18 -3 4 -7
11 -7 18 -2 7 5 66 10 132 11 66 2 136 5 155 8 19 3 584 7 1255 9 1174 4 1222
5 1285 24 152 45 273 166 320 319 20 62 20 104 20 2221 0 2117 0 2159 -20
2221 -47 153 -169 274 -320 319 -61 18 -108 20 -690 24 -344 2 -652 7 -685 10
-190 17 -652 25 -674 11 -10 -5 -12 -4 -7 3 7 11 -5 17 -15 8z m-1072 -1843
c4 -9 -10 -155 -30 -323 -21 -168 -37 -313 -37 -322 0 -17 16 -18 200 -18 151
0 202 3 205 13 3 6 22 155 44 329 22 175 42 322 46 328 4 6 85 10 226 10 187
0 220 -2 225 -15 4 -8 -10 -147 -30 -308 -151 -1227 -179 -1443 -188 -1454 -8
-10 -65 -13 -225 -13 -192 0 -214 2 -220 17 -4 10 11 165 33 346 22 180 38
330 35 332 -2 3 -94 5 -203 5 -150 0 -200 -3 -203 -12 -2 -7 -22 -159 -44
-336 -22 -178 -45 -330 -52 -338 -10 -12 -50 -14 -228 -12 l-216 3 2 75 c2 81
198 1684 208 1700 4 6 92 10 226 10 198 0 220 -2 226 -17z m1647 -260 c72
-150 133 -273 136 -273 3 0 88 114 188 254 101 139 192 263 203 275 19 20 28
21 235 21 182 0 216 -2 220 -15 9 -22 -204 -1745 -217 -1761 -9 -11 -57 -14
-226 -14 -192 0 -214 2 -220 17 -5 14 84 803 104 921 3 17 1 32 -4 32 -5 0
-54 -62 -108 -137 -55 -76 -108 -146 -117 -155 -15 -15 -36 -18 -125 -18 -60
0 -113 4 -120 8 -6 4 -43 73 -82 155 -64 136 -91 174 -91 130 0 -57 -113 -930
-122 -940 -15 -18 -431 -19 -446 0 -7 8 7 155 48 487 33 261 80 648 106 860
26 212 51 395 55 408 l9 22 222 -2 222 -3 130 -272z"/>
</g>
</svg>
